<?xml version="1.0" encoding="UTF-8" standalone="no"?>
<svg
   id="Layer_1"
   data-name="Layer 1"
   viewBox="0 0 300 51"
   version="1.1"
   sodipodi:docname="hon.comLOGOS_Horizontal-Header.svg"
   width="300"
   height="51"
   inkscape:version="1.1 (c4e8f9e, 2021-05-24)"
   xmlns:inkscape="http://www.inkscape.org/namespaces/inkscape"
   xmlns:sodipodi="http://sodipodi.sourceforge.net/DTD/sodipodi-0.dtd"
   xmlns="http://www.w3.org/2000/svg"
   xmlns:svg="http://www.w3.org/2000/svg">
  <sodipodi:namedview
     id="namedview145"
     pagecolor="#ffffff"
     bordercolor="#666666"
     borderopacity="1.0"
     inkscape:pageshadow="2"
     inkscape:pageopacity="0.0"
     inkscape:pagecheckerboard="0"
     showgrid="false"
     height="42px"
     inkscape:zoom="2.5972971"
     inkscape:cx="92.596261"
     inkscape:cy="-19.828305"
     inkscape:window-width="1920"
     inkscape:window-height="1065"
     inkscape:window-x="0"
     inkscape:window-y="25"
     inkscape:window-maximized="0"
     inkscape:current-layer="Layer_1" />
  <defs
     id="defs96">
    <style
       id="style94">.cls-1{fill:#78be20;}.cls-2{fill:none;stroke:#78be20;stroke-miterlimit:10;stroke-width:1.25px;}.cls-3{fill:#58595b;}</style>
  </defs>
  <path
     class="cls-1"
     d="M 52.406938,9.0030156 A 16.98642,16.986421 0 1 0 69.393347,25.989423 16.971975,16.971976 0 0 0 52.406938,9.0030156 m 0,26.7795984 a 9.6487423,9.6487423 0 1 1 9.663191,-9.619855 9.6054103,9.6054095 0 0 1 -9.663191,9.619855"
     id="path98"
     style="stroke-width:1.44443" />
  <path
     class="cls-1"
     d="M 92.749659,9.7685556 H 72.52775 V 42.354735 h 7.698768 V 17.120694 h 11.844258 a 4.8388164,4.8388156 0 0 1 4.824384,4.824345 v 20.409696 h 7.46766 V 21.352831 A 11.555387,11.555386 0 0 0 92.807429,9.7974463"
     id="path100"
     style="stroke-width:1.44443" />
  <polygon
     class="cls-1"
     points="20.2,31.93 31.45,31.93 31.45,39.31 36.62,39.31 36.62,16.77 31.45,16.77 31.45,26.74 20.2,26.74 20.2,16.77 14.87,16.77 14.87,39.31 20.2,39.31 "
     id="polygon102"
     transform="matrix(1.4444238,0,0,1.4444239,-20.594164,-14.454396)" />
  <path
     class="cls-1"
     d="m 106.3706,39.942558 a 1.5094213,1.5094214 0 1 1 3.01875,0 1.5094213,1.5094214 0 1 1 -3.01875,0 m -0.52008,0 a 2.0366355,2.0366356 0 1 0 2.10881,-2.036643 2.0366355,2.0366356 0 0 0 -2.03652,2.036643 m 1.77658,-0.664434 h 0.24565 c 0.12993,0 0.34654,0 0.34654,0.231116 0,0.231095 -0.21664,0.231095 -0.34654,0.231095 h -0.24565 z m -0.51988,1.704419 h 0.51988 v -0.823321 h 0.13035 l 0.47664,0.823321 h 0.57763 l -0.54881,-0.852205 a 0.63554576,0.63554578 0 0 0 0.49098,-0.649995 c 0,-0.519984 -0.47668,-0.63554 -0.96764,-0.63554 h -0.67891 z"
     id="path104"
     style="stroke-width:1.44443" />
  <line
     class="cls-2"
     x1="124.75816"
     y1="52.581203"
     x2="124.75816"
     y2="0.58204722"
     id="line106" />
  <path
     class="cls-3"
     d="m 152.73649,32.01268 v 0.519998 h -4.73752 V 32.01268 l 1.0543,-0.332218 v -6.442124 h -0.20216 l -2.44082,7.29434 h -1.63214 l -2.65813,-7.29434 h -0.17339 v 6.312132 l 1.18452,0.46221 v 0.519998 h -3.62547 V 32.01268 l 1.22799,-0.46221 v -7.106572 l -1.22799,-0.346645 v -0.519998 h 4.56461 l 0.4908,1.444414 1.51668,4.607713 h 0.18773 l 1.44447,-4.607713 0.47694,-1.444414 h 4.54958 v 0.519998 l -1.21298,0.346645 v 7.222119 z"
     id="path108"
     style="stroke-width:1.44443" />
  <path
     class="cls-3"
     d="m 159.74209,31.030477 c 0,0.519993 0.20222,0.866639 0.96791,0.924429 v 0.462214 a 7.222111,7.2221112 0 0 1 -1.66122,0.259993 c -0.70764,0 -1.12648,-0.259993 -1.27119,-0.881097 h -0.20215 a 2.8021804,2.8021796 0 0 1 -1.96444,0.881097 c -1.03975,0 -1.8055,-0.534437 -1.8055,-1.55998 0,-1.025546 1.06886,-1.949962 3.82796,-2.137742 v -0.73665 c 0,-1.025538 -0.37573,-1.372215 -1.44451,-1.372215 a 2.7010698,2.7010702 0 0 0 -0.49126,0 0.98220735,0.98220735 0 0 1 0.31801,0.765544 0.85220929,0.85220929 0 0 1 -0.9392,0.852222 0.95331886,0.95331877 0 0 1 -0.96762,-0.938878 c 0,-0.996644 1.57433,-1.617743 3.13433,-1.617743 1.56017,0 2.5132,0.577759 2.5132,1.993284 z m -2.07998,-1.603319 c -1.34334,0.101161 -1.77677,0.548883 -1.77677,1.198878 a 0.88109763,0.88109754 0 0 0 0.99672,0.953322 1.7044191,1.7044192 0 0 0 0.78005,-0.231125 z"
     id="path110"
     style="stroke-width:1.44443" />
  <path
     class="cls-3"
     d="m 168.62539,31.767131 0.6211,0.288885 v 0.476662 h -3.39452 v -0.404445 l 0.46206,-0.245549 -1.44425,-2.094414 h -0.40426 v 1.978861 l 0.62104,0.332219 v 0.476659 h -3.68321 v -0.519993 l 0.83767,-0.332222 V 23.93836 l -0.9099,-0.66445 v -0.418874 l 2.80214,-0.736647 0.33226,0.18776 v 6.572128 h 0.46221 l 1.64642,-1.863307 -0.83753,-0.44777 v -0.418862 h 3.17752 v 0.491083 l -0.83757,0.332217 -1.8778,1.603316 z"
     id="path112"
     style="stroke-width:1.44443" />
  <path
     class="cls-3"
     d="m 171.97628,29.427158 c 0,1.444415 0.66463,2.1522 1.9502,2.1522 a 7.5398855,7.539886 0 0 0 2.09422,-0.31778 l 0.17331,0.34666 a 5.4165833,5.4165836 0 0 1 -2.98976,1.15554 3.1343966,3.1343958 0 0 1 -3.40884,-3.278836 3.5677236,3.5677229 0 0 1 3.4811,-3.495519 c 2.31085,0 3.10531,1.574426 3.00414,3.481069 z m 2.23889,-0.693324 c 0,-1.444409 -0.31763,-2.123304 -1.03987,-2.123304 -0.72225,0 -1.14107,0.794439 -1.18456,2.267747 z"
     id="path114"
     style="stroke-width:1.44443" />
  <path
     class="cls-3"
     d="m 184.91833,32.965999 c -0.77993,1.819971 -1.55978,2.484402 -2.75882,2.484402 -0.91005,0 -1.44444,-0.447764 -1.44444,-1.054423 a 0.98220735,0.98220735 0 0 1 1.0113,-0.953319 1.3577564,1.3577568 0 0 1 1.18438,0.837752 3.4232826,3.4232819 0 0 0 0.76526,-0.938861 l 0.15903,-0.274448 -2.77342,-6.066568 -0.85191,-0.361113 v -0.491083 h 4.17419 v 0.447754 l -0.88111,0.404442 1.37245,3.45217 v 0 l 1.21311,-3.394395 -0.751,-0.462217 v -0.447754 h 2.80224 v 0.491083 l -0.85234,0.491114 z"
     id="path116"
     style="stroke-width:1.44443" />
  <path
     class="cls-3"
     d="m 192.16949,32.763778 a 3.2210631,3.2210622 0 0 1 -3.49547,-3.423276 3.4377267,3.4377257 0 0 1 3.66884,-3.351079 3.2210631,3.2210622 0 0 1 3.49544,3.394411 3.4521708,3.4521699 0 0 1 -3.66881,3.379944 z m 0.0862,-6.095462 c -0.88109,0 -1.24218,1.083306 -1.24218,2.672186 0,1.588861 0.36109,2.672178 1.24218,2.672178 0.88111,0 1.2277,-1.083317 1.2277,-2.672178 0,-1.58888 -0.30338,-2.672186 -1.2277,-2.672186 z"
     id="path118"
     style="stroke-width:1.44443" />
  <path
     class="cls-3"
     d="m 204.73591,31.767131 v 0.418872 l -2.64335,0.592211 -0.33219,-0.187773 0.0998,-0.996649 h -0.20247 a 3.5677236,3.5677229 0 0 1 -2.39765,1.169986 1.7188621,1.7188622 0 0 1 -1.74792,-1.921082 v -3.264394 l -0.82337,-0.66443 v -0.418895 l 2.71547,-0.59221 0.33224,0.187771 v 4.015501 c 0,0.751099 0.23128,1.227762 0.93893,1.227762 a 2.1521903,2.1521905 0 0 0 1.05442,-0.259993 v -3.495506 l -0.82333,-0.66443 v -0.418895 l 2.7154,-0.59221 0.33243,0.187771 v 5.026595 z"
     id="path120"
     style="stroke-width:1.44443" />
  <path
     class="cls-3"
     d="m 210.74452,28.444945 a 1.1844255,1.1844255 0 0 1 -1.11197,-0.852204 2.4121846,2.4121851 0 0 0 -0.93894,0.63554 v 3.53885 l 0.96763,0.332219 v 0.476659 h -4.02983 v -0.519993 l 0.83783,-0.332222 v -4.145492 l -0.83783,-0.66443 v -0.418895 l 2.64339,-0.59221 0.33217,0.187771 -0.17324,1.444433 h 0.1878 c 0.54879,-0.938879 1.14088,-1.617764 2.06552,-1.617764 a 1.1555387,1.1555386 0 0 1 1.21313,1.242203 1.1988714,1.1988714 0 0 1 -1.15566,1.285535 z"
     id="path122"
     style="stroke-width:1.44443" />
  <path
     class="cls-3"
     d="m 218.7323,32.763778 a 6.5432324,6.5432326 0 0 1 -2.41229,-0.375545 v -1.935529 h 0.49132 c 0.93866,1.314427 1.44442,1.675529 2.07996,1.675529 0.63537,0 0.93873,-0.259996 0.93873,-0.76554 0,-0.505555 -0.43317,-0.808874 -1.57427,-1.256654 -1.1412,-0.447781 -1.96456,-0.866653 -1.96456,-2.065533 0,-1.198858 1.02557,-2.094412 2.88888,-2.094412 a 6.77434,6.7743403 0 0 1 1.96439,0.245561 v 1.747753 h -0.49103 c -0.73682,-1.068882 -1.141,-1.444431 -1.71892,-1.444431 -0.57779,0 -0.86659,0.332226 -0.86659,0.736664 0,0.404429 0.33219,0.72221 1.29987,1.068861 1.44443,0.520007 2.2101,0.953322 2.2101,2.065538 -0.0129,1.531076 -1.24231,2.397738 -2.84559,2.397738 z"
     id="path124"
     style="stroke-width:1.44443" />
  <path
     class="cls-3"
     d="m 226.4022,32.763778 a 4.5210431,4.5210422 0 0 1 -0.86655,-0.08662 v 1.978854 l 0.98214,0.346667 v 0.462209 h -4.05876 V 35.00268 l 0.85207,-0.346667 V 27.59278 l -0.85207,-0.664429 V 26.50947 l 2.64308,-0.606665 0.34685,0.187772 -0.0862,0.794449 h 0.20214 a 3.2066187,3.2066181 0 0 1 2.10888,-0.967785 c 1.35786,0 2.48433,1.2711 2.48433,3.221071 a 3.553279,3.553278 0 0 1 -3.7555,3.625502 z m 0,-5.474353 a 3.3943936,3.3943928 0 0 0 -0.79432,0.115752 v 3.943271 a 1.1844255,1.1844255 0 0 0 1.11203,0.678879 c 0.59238,0 1.15571,-0.649999 1.15571,-2.426629 0,-1.776646 -0.57793,-2.311081 -1.47342,-2.311081 z"
     id="path126"
     style="stroke-width:1.44443" />
  <path
     class="cls-3"
     d="m 237.29324,31.030477 c 0,0.519993 0.18781,0.866639 0.95319,0.924429 v 0.462214 a 7.222111,7.2221112 0 0 1 -1.66094,0.259993 c -0.70783,0 -1.1268,-0.259993 -1.27116,-0.881097 h -0.20238 a 2.8021804,2.8021796 0 0 1 -1.96433,0.881097 c -1.03991,0 -1.80557,-0.534437 -1.80557,-1.55998 0,-1.025546 1.06885,-1.949962 3.84222,-2.137742 v -0.73665 c 0,-1.025538 -0.38988,-1.372215 -1.44449,-1.372215 a 2.8888452,2.8888443 0 0 0 -0.49089,0 0.98220735,0.98220735 0 0 1 0.3176,0.765544 0.85220929,0.85220929 0 0 1 -0.9387,0.852222 0.967763,0.96776292 0 0 1 -0.96785,-0.938878 c 0,-0.996644 1.57432,-1.617743 3.13445,-1.617743 1.55982,0 2.5277,0.577759 2.5277,1.993284 z m -2.08009,-1.603319 c -1.35784,0.101161 -1.79107,0.548883 -1.79107,1.198878 a 0.88109763,0.88109754 0 0 0 0.99677,0.953322 1.7621944,1.7621945 0 0 0 0.7943,-0.231125 z"
     id="path128"
     style="stroke-width:1.44443" />
  <path
     class="cls-3"
     d="m 244.18297,28.690506 a 1.0977602,1.0977601 0 0 1 -1.11209,-1.242205 3.3366156,3.3366146 0 0 1 0.0998,-0.736655 v 0 c -1.011,0 -1.79105,0.982216 -1.79105,2.513296 a 2.0221906,2.0221907 0 0 0 2.18104,2.238856 4.3332687,4.3332679 0 0 0 1.44447,-0.259992 l 0.15884,0.418882 a 3.8132748,3.8132741 0 0 1 -2.72987,1.14109 3.2788398,3.278839 0 0 1 -3.38002,-3.278836 3.5966121,3.5966112 0 0 1 3.72677,-3.495519 c 1.4443,0 2.44099,0.736672 2.44099,1.646647 a 1.0255407,1.0255407 0 0 1 -1.04011,1.054436 z"
     id="path130"
     style="stroke-width:1.44443" />
  <path
     class="cls-3"
     d="m 248.50171,29.427158 c 0,1.444415 0.67897,2.1522 1.95006,2.1522 a 7.5398855,7.539886 0 0 0 2.09437,-0.31778 l 0.17334,0.34666 a 5.3732507,5.3732511 0 0 1 -2.98991,1.15554 3.1343966,3.1343958 0 0 1 -3.40896,-3.278836 3.5677236,3.5677229 0 0 1 3.48123,-3.495519 c 2.31091,0 3.10537,1.574426 3.00428,3.481069 z m 2.25328,-0.693324 c 0,-1.444409 -0.33207,-2.123304 -1.03991,-2.123304 -0.7077,0 -1.15551,0.794439 -1.19892,2.267747 z"
     id="path132"
     style="stroke-width:1.44443" />
  <path
     class="cls-3"
     d="m 265.09825,30.438259 h 0.0733 l 1.1989,-3.408828 -0.72226,-0.462231 v -0.418862 h 2.88874 v 0.491083 l -0.90988,0.491114 -2.47002,5.561018 h -1.05437 l -1.44441,-3.524382 -1.74783,3.524382 h -1.06891 l -2.22428,-5.691019 -0.85235,-0.361113 v -0.491083 h 3.7412 V 26.5672 l -0.62118,0.36111 1.14104,3.582168 v 0 l 1.14112,-2.426625 -0.44777,-1.155543 -0.67875,-0.36111 v -0.418862 h 3.5966 V 26.5672 l -0.78003,0.36111 z"
     id="path134"
     style="stroke-width:1.44443" />
  <path
     class="cls-3"
     d="m 272.47926,32.763778 a 3.2355074,3.2355064 0 0 1 -3.49563,-3.423276 3.4377267,3.4377257 0 0 1 3.63999,-3.351079 3.2210631,3.2210622 0 0 1 3.49545,3.394411 3.4521708,3.4521699 0 0 1 -3.63981,3.379944 z m 0.0862,-6.095462 c -0.88117,0 -1.24228,1.083306 -1.24228,2.672186 0,1.588861 0.36111,2.672178 1.24228,2.672178 0.88112,0 1.24223,-1.083317 1.24223,-2.672178 0,-1.58888 -0.37559,-2.672186 -1.18444,-2.672186 z"
     id="path136"
     style="stroke-width:1.44443" />
  <path
     class="cls-3"
     d="m 282.33012,28.444945 a 1.1699823,1.1699822 0 0 1 -1.11223,-0.852204 2.4555178,2.455518 0 0 0 -0.95327,0.63554 v 3.53885 l 0.98219,0.332219 v 0.476659 h -4.04439 v -0.519993 l 0.85227,-0.332222 v -4.145492 l -0.85227,-0.66443 v -0.418895 l 2.6434,-0.59221 0.34663,0.187771 -0.18773,1.444433 h 0.20219 c 0.54886,-0.938879 1.12657,-1.617764 2.06551,-1.617764 a 1.1555387,1.1555386 0 0 1 1.19878,1.242203 1.1988714,1.1988714 0 0 1 -1.14108,1.285535 z"
     id="path138"
     style="stroke-width:1.44443" />
  <path
     class="cls-3"
     d="m 291.48775,31.767131 0.62111,0.288885 v 0.476662 h -3.37983 v -0.404445 l 0.46213,-0.245549 -1.44436,-2.094414 h -0.41901 v 1.978861 l 0.62123,0.332219 v 0.476659 h -3.77007 v -0.519993 l 0.85227,-0.332222 V 23.93836 l -0.92444,-0.66445 v -0.418874 l 2.80219,-0.736647 0.33213,0.18776 v 6.572128 h 0.46227 l 1.64671,-1.863307 -0.76568,-0.4622 v -0.418899 h 3.1778 v 0.491119 l -0.85214,0.332219 -1.86335,1.603304 z"
     id="path140"
     style="stroke-width:1.44443" />
  <path
     class="cls-3"
     d="m 294.13114,26.307207 a 1.516643,1.5166432 0 1 1 1.51664,1.574424 1.5310871,1.5310872 0 0 1 -1.51664,-1.574424 m -0.51999,0 a 2.0366355,2.0366356 0 1 0 2.03663,-2.036629 2.0366355,2.0366356 0 0 0 -2.03663,2.036629 m 1.77663,-0.664434 h 0.26 c 0.1316,0 0.34663,0 0.34663,0.231104 0,0.231118 -0.21674,0.231118 -0.34663,0.231118 h -0.26 z m -0.52,1.704412 h 0.52 V 26.53831 h 0.13161 l 0.49117,0.808875 h 0.56339 l -0.53457,-0.837755 a 0.64999004,0.64999007 0 0 0 0.47659,-0.664447 c 0,-0.51999 -0.47659,-0.635544 -0.96771,-0.635544 h -0.67887 z"
     id="path142"
     style="stroke-width:1.44443" />
</svg>
